<?xml version="1.0" encoding="utf-8" standalone="no"?>
<!DOCTYPE svg PUBLIC "-//W3C//DTD SVG 1.1//EN"
  "http://www.w3.org/Graphics/SVG/1.1/DTD/svg11.dtd">
<!-- Created with matplotlib (https://matplotlib.org/) -->
<svg height="485.996875pt" version="1.1" viewBox="0 0 718.301875 485.996875" width="718.301875pt" xmlns="http://www.w3.org/2000/svg" xmlns:xlink="http://www.w3.org/1999/xlink">
 <metadata>
  <rdf:RDF xmlns:cc="http://creativecommons.org/ns#" xmlns:dc="http://purl.org/dc/elements/1.1/" xmlns:rdf="http://www.w3.org/1999/02/22-rdf-syntax-ns#">
   <cc:Work>
    <dc:type rdf:resource="http://purl.org/dc/dcmitype/StillImage"/>
    <dc:date>2022-05-26T18:34:12.441623</dc:date>
    <dc:format>image/svg+xml</dc:format>
    <dc:creator>
     <cc:Agent>
      <dc:title>Matplotlib v3.3.4, https://matplotlib.org/</dc:title>
     </cc:Agent>
    </dc:creator>
   </cc:Work>
  </rdf:RDF>
 </metadata>
 <defs>
  <style type="text/css">*{stroke-linecap:butt;stroke-linejoin:round;}</style>
 </defs>
 <g id="figure_1">
  <g id="patch_1">
   <path d="M 0 485.996875 
L 718.301875 485.996875 
L 718.301875 0 
L 0 0 
z
" style="fill:#ffffff;"/>
  </g>
  <g id="axes_1">
   <g id="patch_2">
    <path d="M 48.701875 443.52 
L 718.301875 443.52 
L 718.301875 -0 
L 48.701875 -0 
z
" style="fill:#ffffff;"/>
   </g>
   <g id="matplotlib.axis_1">
    <g id="xtick_1">
     <g id="line2d_1">
      <defs>
       <path d="M 0 0 
L 0 3.5 
" id="m0035a2057c" style="stroke:#000000;stroke-width:0.8;"/>
      </defs>
      <g>
       <use style="stroke:#000000;stroke-width:0.8;" x="79.138239" xlink:href="#m0035a2057c" y="443.52"/>
      </g>
     </g>
     <g id="text_1">
      <!-- 0 -->
      <g transform="translate(75.956989 458.118437)scale(0.1 -0.1)">
       <defs>
        <path d="M 31.78125 66.40625 
Q 24.171875 66.40625 20.328125 58.90625 
Q 16.5 51.421875 16.5 36.375 
Q 16.5 21.390625 20.328125 13.890625 
Q 24.171875 6.390625 31.78125 6.390625 
Q 39.453125 6.390625 43.28125 13.890625 
Q 47.125 21.390625 47.125 36.375 
Q 47.125 51.421875 43.28125 58.90625 
Q 39.453125 66.40625 31.78125 66.40625 
z
M 31.78125 74.21875 
Q 44.046875 74.21875 50.515625 64.515625 
Q 56.984375 54.828125 56.984375 36.375 
Q 56.984375 17.96875 50.515625 8.265625 
Q 44.046875 -1.421875 31.78125 -1.421875 
Q 19.53125 -1.421875 13.0625 8.265625 
Q 6.59375 17.96875 6.59375 36.375 
Q 6.59375 54.828125 13.0625 64.515625 
Q 19.53125 74.21875 31.78125 74.21875 
z
" id="DejaVuSans-48"/>
       </defs>
       <use xlink:href="#DejaVuSans-48"/>
      </g>
     </g>
    </g>
    <g id="xtick_2">
     <g id="line2d_2">
      <g>
       <use style="stroke:#000000;stroke-width:0.8;" x="155.267212" xlink:href="#m0035a2057c" y="443.52"/>
      </g>
     </g>
     <g id="text_2">
      <!-- 250 -->
      <g transform="translate(145.723462 458.118437)scale(0.1 -0.1)">
       <defs>
        <path d="M 19.1875 8.296875 
L 53.609375 8.296875 
L 53.609375 0 
L 7.328125 0 
L 7.328125 8.296875 
Q 12.9375 14.109375 22.625 23.890625 
Q 32.328125 33.6875 34.8125 36.53125 
Q 39.546875 41.84375 41.421875 45.53125 
Q 43.3125 49.21875 43.3125 52.78125 
Q 43.3125 58.59375 39.234375 62.25 
Q 35.15625 65.921875 28.609375 65.921875 
Q 23.96875 65.921875 18.8125 64.3125 
Q 13.671875 62.703125 7.8125 59.421875 
L 7.8125 69.390625 
Q 13.765625 71.78125 18.9375 73 
Q 24.125 74.21875 28.421875 74.21875 
Q 39.75 74.21875 46.484375 68.546875 
Q 53.21875 62.890625 53.21875 53.421875 
Q 53.21875 48.921875 51.53125 44.890625 
Q 49.859375 40.875 45.40625 35.40625 
Q 44.1875 33.984375 37.640625 27.21875 
Q 31.109375 20.453125 19.1875 8.296875 
z
" id="DejaVuSans-50"/>
        <path d="M 10.796875 72.90625 
L 49.515625 72.90625 
L 49.515625 64.59375 
L 19.828125 64.59375 
L 19.828125 46.734375 
Q 21.96875 47.46875 24.109375 47.828125 
Q 26.265625 48.1875 28.421875 48.1875 
Q 40.625 48.1875 47.75 41.5 
Q 54.890625 34.8125 54.890625 23.390625 
Q 54.890625 11.625 47.5625 5.09375 
Q 40.234375 -1.421875 26.90625 -1.421875 
Q 22.3125 -1.421875 17.546875 -0.640625 
Q 12.796875 0.140625 7.71875 1.703125 
L 7.71875 11.625 
Q 12.109375 9.234375 16.796875 8.0625 
Q 21.484375 6.890625 26.703125 6.890625 
Q 35.15625 6.890625 40.078125 11.328125 
Q 45.015625 15.765625 45.015625 23.390625 
Q 45.015625 31 40.078125 35.4375 
Q 35.15625 39.890625 26.703125 39.890625 
Q 22.75 39.890625 18.8125 39.015625 
Q 14.890625 38.140625 10.796875 36.28125 
z
" id="DejaVuSans-53"/>
       </defs>
       <use xlink:href="#DejaVuSans-50"/>
       <use x="63.623047" xlink:href="#DejaVuSans-53"/>
       <use x="127.246094" xlink:href="#DejaVuSans-48"/>
      </g>
     </g>
    </g>
    <g id="xtick_3">
     <g id="line2d_3">
      <g>
       <use style="stroke:#000000;stroke-width:0.8;" x="231.396186" xlink:href="#m0035a2057c" y="443.52"/>
      </g>
     </g>
     <g id="text_3">
      <!-- 500 -->
      <g transform="translate(221.852436 458.118437)scale(0.1 -0.1)">
       <use xlink:href="#DejaVuSans-53"/>
       <use x="63.623047" xlink:href="#DejaVuSans-48"/>
       <use x="127.246094" xlink:href="#DejaVuSans-48"/>
      </g>
     </g>
    </g>
    <g id="xtick_4">
     <g id="line2d_4">
      <g>
       <use style="stroke:#000000;stroke-width:0.8;" x="307.525159" xlink:href="#m0035a2057c" y="443.52"/>
      </g>
     </g>
     <g id="text_4">
      <!-- 750 -->
      <g transform="translate(297.981409 458.118437)scale(0.1 -0.1)">
       <defs>
        <path d="M 8.203125 72.90625 
L 55.078125 72.90625 
L 55.078125 68.703125 
L 28.609375 0 
L 18.3125 0 
L 43.21875 64.59375 
L 8.203125 64.59375 
z
" id="DejaVuSans-55"/>
       </defs>
       <use xlink:href="#DejaVuSans-55"/>
       <use x="63.623047" xlink:href="#DejaVuSans-53"/>
       <use x="127.246094" xlink:href="#DejaVuSans-48"/>
      </g>
     </g>
    </g>
    <g id="xtick_5">
     <g id="line2d_5">
      <g>
       <use style="stroke:#000000;stroke-width:0.8;" x="383.654133" xlink:href="#m0035a2057c" y="443.52"/>
      </g>
     </g>
     <g id="text_5">
      <!-- 1000 -->
      <g transform="translate(370.929133 458.118437)scale(0.1 -0.1)">
       <defs>
        <path d="M 12.40625 8.296875 
L 28.515625 8.296875 
L 28.515625 63.921875 
L 10.984375 60.40625 
L 10.984375 69.390625 
L 28.421875 72.90625 
L 38.28125 72.90625 
L 38.28125 8.296875 
L 54.390625 8.296875 
L 54.390625 0 
L 12.40625 0 
z
" id="DejaVuSans-49"/>
       </defs>
       <use xlink:href="#DejaVuSans-49"/>
       <use x="63.623047" xlink:href="#DejaVuSans-48"/>
       <use x="127.246094" xlink:href="#DejaVuSans-48"/>
       <use x="190.869141" xlink:href="#DejaVuSans-48"/>
      </g>
     </g>
    </g>
    <g id="xtick_6">
     <g id="line2d_6">
      <g>
       <use style="stroke:#000000;stroke-width:0.8;" x="459.783107" xlink:href="#m0035a2057c" y="443.52"/>
      </g>
     </g>
     <g id="text_6">
      <!-- 1250 -->
      <g transform="translate(447.058107 458.118437)scale(0.1 -0.1)">
       <use xlink:href="#DejaVuSans-49"/>
       <use x="63.623047" xlink:href="#DejaVuSans-50"/>
       <use x="127.246094" xlink:href="#DejaVuSans-53"/>
       <use x="190.869141" xlink:href="#DejaVuSans-48"/>
      </g>
     </g>
    </g>
    <g id="xtick_7">
     <g id="line2d_7">
      <g>
       <use style="stroke:#000000;stroke-width:0.8;" x="535.91208" xlink:href="#m0035a2057c" y="443.52"/>
      </g>
     </g>
     <g id="text_7">
      <!-- 1500 -->
      <g transform="translate(523.18708 458.118437)scale(0.1 -0.1)">
       <use xlink:href="#DejaVuSans-49"/>
       <use x="63.623047" xlink:href="#DejaVuSans-53"/>
       <use x="127.246094" xlink:href="#DejaVuSans-48"/>
       <use x="190.869141" xlink:href="#DejaVuSans-48"/>
      </g>
     </g>
    </g>
    <g id="xtick_8">
     <g id="line2d_8">
      <g>
       <use style="stroke:#000000;stroke-width:0.8;" x="612.041054" xlink:href="#m0035a2057c" y="443.52"/>
      </g>
     </g>
     <g id="text_8">
      <!-- 1750 -->
      <g transform="translate(599.316054 458.118437)scale(0.1 -0.1)">
       <use xlink:href="#DejaVuSans-49"/>
       <use x="63.623047" xlink:href="#DejaVuSans-55"/>
       <use x="127.246094" xlink:href="#DejaVuSans-53"/>
       <use x="190.869141" xlink:href="#DejaVuSans-48"/>
      </g>
     </g>
    </g>
    <g id="xtick_9">
     <g id="line2d_9">
      <g>
       <use style="stroke:#000000;stroke-width:0.8;" x="688.170027" xlink:href="#m0035a2057c" y="443.52"/>
      </g>
     </g>
     <g id="text_9">
      <!-- 2000 -->
      <g transform="translate(675.445027 458.118437)scale(0.1 -0.1)">
       <use xlink:href="#DejaVuSans-50"/>
       <use x="63.623047" xlink:href="#DejaVuSans-48"/>
       <use x="127.246094" xlink:href="#DejaVuSans-48"/>
       <use x="190.869141" xlink:href="#DejaVuSans-48"/>
      </g>
     </g>
    </g>
    <g id="text_10">
     <!-- Epoch -->
     <g transform="translate(352.845625 480.863125)scale(0.24 -0.24)">
      <defs>
       <path d="M 20.90625 62.59375 
L 20.90625 36.421875 
L 35.453125 36.421875 
Q 41.109375 36.421875 43.015625 38.140625 
Q 45.5625 40.375 45.84375 46.046875 
L 47.65625 46.046875 
L 47.65625 23 
L 45.84375 23 
Q 45.171875 27.828125 44.484375 29.203125 
Q 43.609375 30.90625 41.59375 31.875 
Q 39.59375 32.859375 35.453125 32.859375 
L 20.90625 32.859375 
L 20.90625 11.03125 
Q 20.90625 6.640625 21.296875 5.6875 
Q 21.6875 4.734375 22.65625 4.171875 
Q 23.640625 3.609375 26.375 3.609375 
L 37.59375 3.609375 
Q 43.21875 3.609375 45.75 4.390625 
Q 48.296875 5.171875 50.640625 7.46875 
Q 53.65625 10.5 56.84375 16.609375 
L 58.796875 16.609375 
L 53.078125 0 
L 2.046875 0 
L 2.046875 1.8125 
L 4.390625 1.8125 
Q 6.734375 1.8125 8.84375 2.9375 
Q 10.40625 3.71875 10.96875 5.28125 
Q 11.53125 6.84375 11.53125 11.671875 
L 11.53125 54.6875 
Q 11.53125 60.984375 10.25 62.453125 
Q 8.5 64.40625 4.390625 64.40625 
L 2.046875 64.40625 
L 2.046875 66.21875 
L 53.078125 66.21875 
L 53.8125 51.703125 
L 51.90625 51.703125 
Q 50.875 56.9375 49.625 58.890625 
Q 48.390625 60.84375 45.953125 61.859375 
Q 44 62.59375 39.0625 62.59375 
z
" id="TimesNewRomanPSMT-69"/>
       <path d="M -0.09375 40.28125 
L 13.671875 45.84375 
L 15.53125 45.84375 
L 15.53125 35.40625 
Q 19 41.3125 22.484375 43.671875 
Q 25.984375 46.046875 29.828125 46.046875 
Q 36.578125 46.046875 41.0625 40.765625 
Q 46.578125 34.328125 46.578125 23.96875 
Q 46.578125 12.40625 39.9375 4.828125 
Q 34.46875 -1.375 26.171875 -1.375 
Q 22.5625 -1.375 19.921875 -0.34375 
Q 17.96875 0.390625 15.53125 2.59375 
L 15.53125 -11.03125 
Q 15.53125 -15.625 16.09375 -16.859375 
Q 16.65625 -18.109375 18.046875 -18.84375 
Q 19.4375 -19.578125 23.09375 -19.578125 
L 23.09375 -21.390625 
L -0.34375 -21.390625 
L -0.34375 -19.578125 
L 0.875 -19.578125 
Q 3.5625 -19.625 5.46875 -18.5625 
Q 6.390625 -18.015625 6.90625 -16.8125 
Q 7.421875 -15.625 7.421875 -10.75 
L 7.421875 31.546875 
Q 7.421875 35.890625 7.03125 37.0625 
Q 6.640625 38.234375 5.78125 38.8125 
Q 4.9375 39.40625 3.46875 39.40625 
Q 2.296875 39.40625 0.484375 38.71875 
z
M 15.53125 32.515625 
L 15.53125 15.828125 
Q 15.53125 10.40625 15.96875 8.6875 
Q 16.65625 5.859375 19.3125 3.703125 
Q 21.96875 1.5625 26.03125 1.5625 
Q 30.90625 1.5625 33.9375 5.375 
Q 37.890625 10.359375 37.890625 19.390625 
Q 37.890625 29.640625 33.40625 35.15625 
Q 30.28125 38.96875 25.984375 38.96875 
Q 23.640625 38.96875 21.34375 37.796875 
Q 19.578125 36.921875 15.53125 32.515625 
z
" id="TimesNewRomanPSMT-112"/>
       <path d="M 25 46.046875 
Q 35.15625 46.046875 41.3125 38.328125 
Q 46.53125 31.734375 46.53125 23.1875 
Q 46.53125 17.1875 43.640625 11.03125 
Q 40.765625 4.890625 35.71875 1.75 
Q 30.671875 -1.375 24.46875 -1.375 
Q 14.359375 -1.375 8.40625 6.6875 
Q 3.375 13.484375 3.375 21.921875 
Q 3.375 28.078125 6.421875 34.15625 
Q 9.46875 40.234375 14.453125 43.140625 
Q 19.4375 46.046875 25 46.046875 
z
M 23.484375 42.875 
Q 20.90625 42.875 18.28125 41.328125 
Q 15.671875 39.796875 14.0625 35.9375 
Q 12.453125 32.078125 12.453125 26.03125 
Q 12.453125 16.265625 16.328125 9.171875 
Q 20.21875 2.09375 26.5625 2.09375 
Q 31.296875 2.09375 34.375 6 
Q 37.453125 9.90625 37.453125 19.4375 
Q 37.453125 31.34375 32.328125 38.1875 
Q 28.859375 42.875 23.484375 42.875 
z
" id="TimesNewRomanPSMT-111"/>
       <path d="M 41.109375 17 
Q 39.3125 8.15625 34.03125 3.390625 
Q 28.765625 -1.375 22.359375 -1.375 
Q 14.75 -1.375 9.078125 5.015625 
Q 3.421875 11.421875 3.421875 22.3125 
Q 3.421875 32.859375 9.6875 39.453125 
Q 15.96875 46.046875 24.75 46.046875 
Q 31.34375 46.046875 35.59375 42.546875 
Q 39.84375 39.0625 39.84375 35.296875 
Q 39.84375 33.453125 38.640625 32.296875 
Q 37.453125 31.15625 35.296875 31.15625 
Q 32.421875 31.15625 30.953125 33.015625 
Q 30.125 34.03125 29.859375 36.90625 
Q 29.59375 39.796875 27.875 41.3125 
Q 26.171875 42.78125 23.140625 42.78125 
Q 18.265625 42.78125 15.28125 39.15625 
Q 11.328125 34.375 11.328125 26.515625 
Q 11.328125 18.5 15.25 12.375 
Q 19.1875 6.25 25.875 6.25 
Q 30.671875 6.25 34.46875 9.515625 
Q 37.15625 11.765625 39.703125 17.671875 
z
" id="TimesNewRomanPSMT-99"/>
       <path d="M 16.265625 69.4375 
L 16.265625 36.71875 
Q 21.6875 42.671875 24.859375 44.359375 
Q 28.03125 46.046875 31.203125 46.046875 
Q 35.015625 46.046875 37.75 43.9375 
Q 40.484375 41.84375 41.796875 37.359375 
Q 42.71875 34.234375 42.71875 25.921875 
L 42.71875 10.109375 
Q 42.71875 5.859375 43.40625 4.296875 
Q 43.890625 3.125 45.0625 2.4375 
Q 46.234375 1.765625 49.359375 1.765625 
L 49.359375 0 
L 27.390625 0 
L 27.390625 1.765625 
L 28.421875 1.765625 
Q 31.546875 1.765625 32.765625 2.703125 
Q 33.984375 3.65625 34.46875 5.515625 
Q 34.625 6.296875 34.625 10.109375 
L 34.625 25.921875 
Q 34.625 33.25 33.859375 35.546875 
Q 33.109375 37.84375 31.4375 38.984375 
Q 29.78125 40.140625 27.4375 40.140625 
Q 25.046875 40.140625 22.453125 38.859375 
Q 19.875 37.59375 16.265625 33.734375 
L 16.265625 10.109375 
Q 16.265625 5.515625 16.765625 4.390625 
Q 17.28125 3.265625 18.671875 2.515625 
Q 20.0625 1.765625 23.484375 1.765625 
L 23.484375 0 
L 1.3125 0 
L 1.3125 1.765625 
Q 4.296875 1.765625 6 2.6875 
Q 6.984375 3.171875 7.5625 4.53125 
Q 8.15625 5.90625 8.15625 10.109375 
L 8.15625 50.59375 
Q 8.15625 58.25 7.78125 60 
Q 7.421875 61.765625 6.65625 62.390625 
Q 5.90625 63.03125 4.640625 63.03125 
Q 3.609375 63.03125 1.3125 62.25 
L 0.640625 63.96875 
L 14.015625 69.4375 
z
" id="TimesNewRomanPSMT-104"/>
      </defs>
      <use xlink:href="#TimesNewRomanPSMT-69"/>
      <use x="61.083984" xlink:href="#TimesNewRomanPSMT-112"/>
      <use x="111.083984" xlink:href="#TimesNewRomanPSMT-111"/>
      <use x="161.083984" xlink:href="#TimesNewRomanPSMT-99"/>
      <use x="205.46875" xlink:href="#TimesNewRomanPSMT-104"/>
     </g>
    </g>
   </g>
   <g id="matplotlib.axis_2">
    <g id="ytick_1">
     <g id="line2d_10">
      <defs>
       <path d="M 0 0 
L -3.5 0 
" id="md5958dfc77" style="stroke:#000000;stroke-width:0.8;"/>
      </defs>
      <g>
       <use style="stroke:#000000;stroke-width:0.8;" x="48.701875" xlink:href="#md5958dfc77" y="375.834525"/>
      </g>
     </g>
     <g id="text_11">
      <!-- 0.2 -->
      <g transform="translate(25.79875 379.633743)scale(0.1 -0.1)">
       <defs>
        <path d="M 10.6875 12.40625 
L 21 12.40625 
L 21 0 
L 10.6875 0 
z
" id="DejaVuSans-46"/>
       </defs>
       <use xlink:href="#DejaVuSans-48"/>
       <use x="63.623047" xlink:href="#DejaVuSans-46"/>
       <use x="95.410156" xlink:href="#DejaVuSans-50"/>
      </g>
     </g>
    </g>
    <g id="ytick_2">
     <g id="line2d_11">
      <g>
       <use style="stroke:#000000;stroke-width:0.8;" x="48.701875" xlink:href="#md5958dfc77" y="278.994981"/>
      </g>
     </g>
     <g id="text_12">
      <!-- 0.4 -->
      <g transform="translate(25.79875 282.7942)scale(0.1 -0.1)">
       <defs>
        <path d="M 37.796875 64.3125 
L 12.890625 25.390625 
L 37.796875 25.390625 
z
M 35.203125 72.90625 
L 47.609375 72.90625 
L 47.609375 25.390625 
L 58.015625 25.390625 
L 58.015625 17.1875 
L 47.609375 17.1875 
L 47.609375 0 
L 37.796875 0 
L 37.796875 17.1875 
L 4.890625 17.1875 
L 4.890625 26.703125 
z
" id="DejaVuSans-52"/>
       </defs>
       <use xlink:href="#DejaVuSans-48"/>
       <use x="63.623047" xlink:href="#DejaVuSans-46"/>
       <use x="95.410156" xlink:href="#DejaVuSans-52"/>
      </g>
     </g>
    </g>
    <g id="ytick_3">
     <g id="line2d_12">
      <g>
       <use style="stroke:#000000;stroke-width:0.8;" x="48.701875" xlink:href="#md5958dfc77" y="182.155437"/>
      </g>
     </g>
     <g id="text_13">
      <!-- 0.6 -->
      <g transform="translate(25.79875 185.954656)scale(0.1 -0.1)">
       <defs>
        <path d="M 33.015625 40.375 
Q 26.375 40.375 22.484375 35.828125 
Q 18.609375 31.296875 18.609375 23.390625 
Q 18.609375 15.53125 22.484375 10.953125 
Q 26.375 6.390625 33.015625 6.390625 
Q 39.65625 6.390625 43.53125 10.953125 
Q 47.40625 15.53125 47.40625 23.390625 
Q 47.40625 31.296875 43.53125 35.828125 
Q 39.65625 40.375 33.015625 40.375 
z
M 52.59375 71.296875 
L 52.59375 62.3125 
Q 48.875 64.0625 45.09375 64.984375 
Q 41.3125 65.921875 37.59375 65.921875 
Q 27.828125 65.921875 22.671875 59.328125 
Q 17.53125 52.734375 16.796875 39.40625 
Q 19.671875 43.65625 24.015625 45.921875 
Q 28.375 48.1875 33.59375 48.1875 
Q 44.578125 48.1875 50.953125 41.515625 
Q 57.328125 34.859375 57.328125 23.390625 
Q 57.328125 12.15625 50.6875 5.359375 
Q 44.046875 -1.421875 33.015625 -1.421875 
Q 20.359375 -1.421875 13.671875 8.265625 
Q 6.984375 17.96875 6.984375 36.375 
Q 6.984375 53.65625 15.1875 63.9375 
Q 23.390625 74.21875 37.203125 74.21875 
Q 40.921875 74.21875 44.703125 73.484375 
Q 48.484375 72.75 52.59375 71.296875 
z
" id="DejaVuSans-54"/>
       </defs>
       <use xlink:href="#DejaVuSans-48"/>
       <use x="63.623047" xlink:href="#DejaVuSans-46"/>
       <use x="95.410156" xlink:href="#DejaVuSans-54"/>
      </g>
     </g>
    </g>
    <g id="ytick_4">
     <g id="line2d_13">
      <g>
       <use style="stroke:#000000;stroke-width:0.8;" x="48.701875" xlink:href="#md5958dfc77" y="85.315894"/>
      </g>
     </g>
     <g id="text_14">
      <!-- 0.8 -->
      <g transform="translate(25.79875 89.115112)scale(0.1 -0.1)">
       <defs>
        <path d="M 31.78125 34.625 
Q 24.75 34.625 20.71875 30.859375 
Q 16.703125 27.09375 16.703125 20.515625 
Q 16.703125 13.921875 20.71875 10.15625 
Q 24.75 6.390625 31.78125 6.390625 
Q 38.8125 6.390625 42.859375 10.171875 
Q 46.921875 13.96875 46.921875 20.515625 
Q 46.921875 27.09375 42.890625 30.859375 
Q 38.875 34.625 31.78125 34.625 
z
M 21.921875 38.8125 
Q 15.578125 40.375 12.03125 44.71875 
Q 8.5 49.078125 8.5 55.328125 
Q 8.5 64.0625 14.71875 69.140625 
Q 20.953125 74.21875 31.78125 74.21875 
Q 42.671875 74.21875 48.875 69.140625 
Q 55.078125 64.0625 55.078125 55.328125 
Q 55.078125 49.078125 51.53125 44.71875 
Q 48 40.375 41.703125 38.8125 
Q 48.828125 37.15625 52.796875 32.3125 
Q 56.78125 27.484375 56.78125 20.515625 
Q 56.78125 9.90625 50.3125 4.234375 
Q 43.84375 -1.421875 31.78125 -1.421875 
Q 19.734375 -1.421875 13.25 4.234375 
Q 6.78125 9.90625 6.78125 20.515625 
Q 6.78125 27.484375 10.78125 32.3125 
Q 14.796875 37.15625 21.921875 38.8125 
z
M 18.3125 54.390625 
Q 18.3125 48.734375 21.84375 45.5625 
Q 25.390625 42.390625 31.78125 42.390625 
Q 38.140625 42.390625 41.71875 45.5625 
Q 45.3125 48.734375 45.3125 54.390625 
Q 45.3125 60.0625 41.71875 63.234375 
Q 38.140625 66.40625 31.78125 66.40625 
Q 25.390625 66.40625 21.84375 63.234375 
Q 18.3125 60.0625 18.3125 54.390625 
z
" id="DejaVuSans-56"/>
       </defs>
       <use xlink:href="#DejaVuSans-48"/>
       <use x="63.623047" xlink:href="#DejaVuSans-46"/>
       <use x="95.410156" xlink:href="#DejaVuSans-56"/>
      </g>
     </g>
    </g>
    <g id="text_15">
     <!-- ACC -->
     <g transform="translate(16.665 246.435)rotate(-90)scale(0.24 -0.24)">
      <defs>
       <path d="M 45.75 22.171875 
L 20.125 22.171875 
L 15.625 11.71875 
Q 13.96875 7.859375 13.96875 5.953125 
Q 13.96875 4.4375 15.40625 3.296875 
Q 16.84375 2.15625 21.625 1.8125 
L 21.625 0 
L 0.78125 0 
L 0.78125 1.8125 
Q 4.9375 2.546875 6.15625 3.71875 
Q 8.640625 6.0625 11.671875 13.234375 
L 34.96875 67.71875 
L 36.671875 67.71875 
L 59.71875 12.640625 
Q 62.5 6 64.765625 4.015625 
Q 67.046875 2.046875 71.09375 1.8125 
L 71.09375 0 
L 44.96875 0 
L 44.96875 1.8125 
Q 48.921875 2 50.3125 3.125 
Q 51.703125 4.25 51.703125 5.859375 
Q 51.703125 8.015625 49.75 12.640625 
z
M 44.390625 25.78125 
L 33.15625 52.546875 
L 21.625 25.78125 
z
" id="TimesNewRomanPSMT-65"/>
       <path d="M 60.203125 67.71875 
L 61.71875 45.21875 
L 60.203125 45.21875 
Q 57.171875 55.328125 51.5625 59.765625 
Q 45.953125 64.203125 38.09375 64.203125 
Q 31.5 64.203125 26.171875 60.859375 
Q 20.84375 57.515625 17.796875 50.1875 
Q 14.75 42.875 14.75 31.984375 
Q 14.75 23 17.625 16.40625 
Q 20.515625 9.8125 26.296875 6.296875 
Q 32.078125 2.78125 39.5 2.78125 
Q 45.953125 2.78125 50.875 5.53125 
Q 55.8125 8.296875 61.71875 16.5 
L 63.234375 15.53125 
Q 58.25 6.6875 51.609375 2.578125 
Q 44.96875 -1.515625 35.84375 -1.515625 
Q 19.390625 -1.515625 10.359375 10.6875 
Q 3.609375 19.78125 3.609375 32.078125 
Q 3.609375 42 8.046875 50.296875 
Q 12.5 58.59375 20.28125 63.15625 
Q 28.078125 67.71875 37.3125 67.71875 
Q 44.484375 67.71875 51.46875 64.203125 
Q 53.515625 63.140625 54.390625 63.140625 
Q 55.71875 63.140625 56.6875 64.0625 
Q 57.953125 65.375 58.5 67.71875 
z
" id="TimesNewRomanPSMT-67"/>
      </defs>
      <use xlink:href="#TimesNewRomanPSMT-65"/>
      <use x="72.216797" xlink:href="#TimesNewRomanPSMT-67"/>
      <use x="138.916016" xlink:href="#TimesNewRomanPSMT-67"/>
     </g>
    </g>
   </g>
   <g id="line2d_14">
    <path clip-path="url(#pf6074abf80)" d="M 79.138239 410.073308 
L 79.442755 423.36 
L 79.74727 422.848973 
L 80.051786 421.571407 
L 80.356302 421.06038 
L 80.660818 420.29384 
L 80.965334 418.76076 
L 82.183398 415.950114 
L 82.487913 415.439087 
L 82.792429 415.183574 
L 83.096945 413.139468 
L 84.010493 410.073308 
L 84.619525 406.496122 
L 85.533072 396.275589 
L 86.142104 391.165323 
L 86.751136 384.77749 
L 87.055652 382.988897 
L 87.360168 380.178251 
L 87.664684 379.156198 
L 87.9692 376.090038 
L 90.405327 342.362281 
L 90.709843 340.062662 
L 91.62339 328.820076 
L 93.450486 309.656578 
L 94.364033 301.735665 
L 94.668549 299.691559 
L 94.973065 296.369886 
L 95.277581 294.325779 
L 96.495645 284.105247 
L 96.800161 284.105247 
L 98.018224 275.417795 
L 99.540804 268.263422 
L 99.845319 267.752395 
L 100.454351 265.452776 
L 100.758867 264.175209 
L 101.063383 263.664183 
L 101.672415 261.875589 
L 101.976931 259.57597 
L 102.281447 258.553916 
L 102.585962 256.765323 
L 102.890478 256.254297 
L 103.49951 252.932624 
L 104.108542 252.421597 
L 104.413058 250.888517 
L 105.631121 247.822357 
L 106.849185 242.201065 
L 107.458217 240.923498 
L 107.762733 238.879392 
L 108.067249 237.857338 
L 108.371764 236.068745 
L 108.980796 235.046692 
L 109.285312 234.024639 
L 109.589828 233.769125 
L 111.112408 229.680913 
L 111.416923 228.403346 
L 111.721439 228.147833 
L 112.025955 227.381293 
L 112.330471 225.848213 
L 112.634987 225.337186 
L 113.244019 223.29308 
L 113.548535 223.29308 
L 113.853051 222.52654 
L 114.157566 222.52654 
L 114.462082 221.504487 
L 114.766598 220.99346 
L 115.071114 220.99346 
L 115.680146 219.715894 
L 116.289178 218.69384 
L 116.593694 217.671787 
L 116.89821 215.883194 
L 117.202725 215.883194 
L 117.507241 215.627681 
L 117.811757 215.116654 
L 118.116273 215.116654 
L 118.420789 213.583574 
L 118.725305 213.583574 
L 119.029821 213.328061 
L 119.334337 212.561521 
L 119.638853 212.561521 
L 120.5524 211.028441 
L 120.856916 210.772928 
L 121.770464 209.239848 
L 122.07498 208.473308 
L 122.379496 208.217795 
L 122.988527 205.918175 
L 123.293043 205.918175 
L 123.597559 205.662662 
L 123.902075 206.173688 
L 124.206591 206.429202 
L 124.511107 205.151635 
L 124.815623 204.640608 
L 125.120139 204.385095 
L 125.424655 203.874068 
L 125.72917 202.596502 
L 126.033686 201.829962 
L 126.338202 201.574449 
L 127.556266 198.763802 
L 127.860782 198.763802 
L 128.165298 197.741749 
L 128.469814 197.230722 
L 128.774329 196.975209 
L 129.383361 196.975209 
L 129.687877 196.208669 
L 129.992393 195.953156 
L 130.296909 195.186616 
L 130.601425 194.931103 
L 130.905941 194.931103 
L 131.210457 194.420076 
L 132.124004 192.37597 
L 132.42852 192.120456 
L 132.733036 192.120456 
L 133.037552 191.864943 
L 133.342068 190.84289 
L 133.646584 190.587376 
L 133.9511 190.07635 
L 134.255616 189.820837 
L 134.560131 189.30981 
L 134.864647 188.287757 
L 135.169163 187.77673 
L 135.778195 185.988137 
L 136.996259 183.17749 
L 137.300774 183.433004 
L 137.909806 181.644411 
L 138.518838 180.366844 
L 138.823354 180.111331 
L 139.432386 178.833764 
L 139.736902 178.322738 
L 140.041417 178.322738 
L 140.345933 177.556198 
L 140.650449 177.556198 
L 140.954965 176.534144 
L 141.563997 175.512091 
L 141.868513 175.256578 
L 142.477545 173.979011 
L 142.782061 173.979011 
L 143.391092 171.679392 
L 143.695608 171.679392 
L 144.000124 171.423878 
L 144.913672 169.124259 
L 145.218188 168.868745 
L 145.827219 167.335665 
L 146.436251 166.824639 
L 146.740767 166.824639 
L 147.958831 164.780532 
L 148.263347 164.780532 
L 148.567863 164.525019 
L 149.48141 162.480913 
L 149.785926 161.969886 
L 150.090442 161.203346 
L 150.394958 161.203346 
L 151.00399 159.15924 
L 151.308506 158.903726 
L 152.222053 157.370646 
L 152.526569 156.604106 
L 153.135601 156.09308 
L 153.440117 156.09308 
L 153.744633 155.837567 
L 154.049149 155.071027 
L 154.353665 155.071027 
L 154.65818 154.304487 
L 154.962696 154.048973 
L 155.267212 153.02692 
L 155.571728 152.771407 
L 155.876244 152.771407 
L 156.18076 152.004867 
L 156.485276 151.749354 
L 156.789792 151.749354 
L 158.007855 150.7273 
L 158.312371 149.96076 
L 158.921403 149.449734 
L 159.225919 149.449734 
L 159.530435 148.938707 
L 159.834951 148.938707 
L 160.443982 146.128061 
L 161.662046 144.083954 
L 162.271078 142.806388 
L 162.575594 142.550875 
L 162.88011 142.039848 
L 163.184625 141.784335 
L 163.489141 141.017795 
L 163.793657 140.762281 
L 164.707205 139.229202 
L 165.011721 139.229202 
L 165.316237 138.718175 
L 165.620753 137.951635 
L 165.925269 137.696122 
L 166.229784 137.696122 
L 166.5343 137.440608 
L 167.143332 136.418555 
L 167.752364 134.885475 
L 168.05688 134.629962 
L 168.361396 133.863422 
L 168.665912 133.863422 
L 168.970427 133.352395 
L 169.274943 132.585856 
L 169.579459 132.330342 
L 169.883975 131.052776 
L 170.493007 131.052776 
L 171.102039 129.519696 
L 171.406555 129.519696 
L 171.711071 128.497643 
L 172.015586 128.242129 
L 172.624618 127.220076 
L 172.929134 127.220076 
L 173.23365 126.709049 
L 173.538166 126.709049 
L 173.842682 126.198023 
L 174.451714 124.153916 
L 175.669777 123.131863 
L 175.974293 122.620837 
L 176.278809 122.87635 
L 176.583325 122.87635 
L 176.887841 121.34327 
L 177.192357 121.598783 
L 177.496872 121.087757 
L 178.105904 119.299163 
L 178.41042 119.04365 
L 178.714936 118.021597 
L 179.019452 117.766084 
L 179.323968 117.255057 
L 179.628484 116.999544 
L 180.542031 114.699924 
L 180.846547 114.955437 
L 181.455579 113.933384 
L 182.064611 113.422357 
L 182.369127 113.422357 
L 182.673643 112.655817 
L 183.282674 112.144791 
L 183.58719 111.122738 
L 183.891706 110.867224 
L 184.196222 110.867224 
L 184.500738 110.611711 
L 184.805254 110.611711 
L 185.10977 110.100684 
L 185.414286 109.845171 
L 185.718802 109.078631 
L 186.023318 108.823118 
L 186.632349 107.801065 
L 187.241381 107.290038 
L 187.545897 107.290038 
L 187.850413 106.779011 
L 188.459445 105.245932 
L 188.763961 104.990418 
L 189.372992 103.712852 
L 189.677508 103.457338 
L 189.982024 102.946312 
L 190.28654 102.690798 
L 190.591056 102.179772 
L 190.895572 101.157719 
L 191.200088 100.646692 
L 191.504604 100.391179 
L 192.113635 100.391179 
L 192.722667 99.113612 
L 193.027183 99.113612 
L 193.636215 98.091559 
L 193.940731 97.836046 
L 194.245247 97.836046 
L 194.549763 96.813992 
L 195.158794 96.302966 
L 195.46331 95.536426 
L 195.767826 95.536426 
L 196.072342 95.280913 
L 196.681374 94.258859 
L 196.98589 94.258859 
L 197.290406 93.747833 
L 197.594922 93.747833 
L 198.203953 93.236806 
L 198.812985 93.236806 
L 199.117501 92.981293 
L 199.422017 92.981293 
L 199.726533 92.470266 
L 200.944596 91.448213 
L 201.249112 91.448213 
L 201.553628 91.1927 
L 201.858144 90.681673 
L 202.16266 90.42616 
L 203.076208 88.89308 
L 203.685239 88.382053 
L 203.989755 87.615513 
L 204.598787 87.104487 
L 205.207819 86.082433 
L 205.512335 85.82692 
L 206.730398 85.82692 
L 207.034914 85.571407 
L 207.643946 85.571407 
L 207.948462 85.315894 
L 208.252978 85.315894 
L 208.557494 85.06038 
L 209.471041 85.06038 
L 210.080073 84.549354 
L 210.384589 84.038327 
L 210.689105 84.038327 
L 210.993621 83.5273 
L 211.298137 83.5273 
L 211.602653 83.016274 
L 211.907169 82.76076 
L 212.211684 82.249734 
L 212.5162 81.994221 
L 212.820716 81.483194 
L 214.03878 80.461141 
L 214.343296 79.950114 
L 214.647812 79.694601 
L 214.952327 79.950114 
L 215.561359 79.950114 
L 215.865875 79.694601 
L 216.170391 79.183574 
L 216.779423 78.672548 
L 217.083939 78.672548 
L 217.388455 78.161521 
L 217.692971 77.906008 
L 217.997486 77.906008 
L 218.302002 77.139468 
L 218.606518 76.883954 
L 218.911034 76.883954 
L 219.21555 76.628441 
L 219.824582 75.606388 
L 220.738129 75.606388 
L 221.042645 75.350875 
L 221.651677 75.350875 
L 221.956193 74.839848 
L 222.260709 74.073308 
L 223.174257 74.073308 
L 223.478773 73.817795 
L 223.783288 73.817795 
L 224.087804 73.562281 
L 224.39232 73.562281 
L 224.696836 73.306768 
L 225.305868 73.306768 
L 225.9149 72.795741 
L 226.828447 72.795741 
L 227.132963 72.540228 
L 227.437479 72.540228 
L 227.741995 72.795741 
L 228.351027 72.795741 
L 228.655543 72.540228 
L 228.960059 72.540228 
L 229.264575 72.284715 
L 229.56909 71.518175 
L 230.178122 71.518175 
L 230.787154 71.007148 
L 231.09167 71.007148 
L 231.396186 70.751635 
L 231.700702 70.751635 
L 232.309733 70.240608 
L 232.614249 70.240608 
L 233.223281 69.729582 
L 233.527797 69.729582 
L 233.832313 69.218555 
L 234.136829 68.963042 
L 234.745861 68.963042 
L 235.050377 68.452015 
L 235.354892 68.452015 
L 235.963924 67.940989 
L 236.26844 67.429962 
L 236.572956 67.429962 
L 236.877472 67.174449 
L 237.181988 67.174449 
L 237.486504 66.407909 
L 238.095535 65.896882 
L 238.704567 65.896882 
L 239.009083 65.641369 
L 239.313599 65.641369 
L 239.618115 65.385856 
L 239.922631 64.619316 
L 240.227147 64.363802 
L 240.531663 64.619316 
L 241.140694 64.108289 
L 241.749726 64.108289 
L 242.663274 63.341749 
L 242.96779 63.341749 
L 243.576822 62.830722 
L 243.881337 62.830722 
L 244.185853 62.319696 
L 244.794885 61.808669 
L 245.403917 61.808669 
L 245.708433 61.297643 
L 246.317465 60.786616 
L 246.621981 60.786616 
L 246.926496 60.531103 
L 247.231012 60.531103 
L 247.535528 60.275589 
L 247.840044 60.275589 
L 248.14456 59.764563 
L 248.449076 59.764563 
L 248.753592 59.509049 
L 249.058108 59.509049 
L 249.362624 58.998023 
L 249.667139 58.998023 
L 249.971655 59.253536 
L 250.276171 59.253536 
L 250.580687 59.509049 
L 250.885203 59.509049 
L 251.189719 59.253536 
L 251.494235 58.74251 
L 253.625846 58.74251 
L 254.539394 57.97597 
L 255.452941 57.97597 
L 255.757457 57.720456 
L 256.671005 57.720456 
L 256.975521 57.464943 
L 257.584553 57.464943 
L 257.889069 57.20943 
L 258.4981 56.187376 
L 259.107132 56.187376 
L 259.411648 55.931863 
L 260.325196 55.931863 
L 260.934228 54.90981 
L 261.543259 54.90981 
L 262.456807 54.14327 
L 262.761323 53.632243 
L 263.674871 53.632243 
L 263.979386 53.37673 
L 265.19745 53.37673 
L 265.501966 53.121217 
L 266.415514 53.121217 
L 266.72003 52.865703 
L 267.024545 51.84365 
L 267.633577 51.332624 
L 267.938093 51.332624 
L 268.242609 50.821597 
L 268.547125 50.821597 
L 268.851641 50.566084 
L 271.592284 50.566084 
L 271.8968 50.31057 
L 272.505832 50.31057 
L 272.810347 50.055057 
L 275.55099 50.055057 
L 275.855506 49.799544 
L 276.464538 49.799544 
L 276.769054 49.54403 
L 278.291634 49.54403 
L 278.596149 49.288517 
L 278.900665 49.288517 
L 279.205181 49.033004 
L 279.814213 49.033004 
L 280.118729 48.77749 
L 280.727761 48.77749 
L 281.336792 48.266464 
L 281.641308 48.266464 
L 282.25034 47.755437 
L 282.554856 47.755437 
L 282.859372 47.499924 
L 283.163888 47.499924 
L 283.468404 47.244411 
L 283.77292 47.244411 
L 284.990983 46.222357 
L 285.295499 46.222357 
L 285.600015 45.966844 
L 286.513563 45.966844 
L 286.818079 45.711331 
L 287.122594 45.711331 
L 287.42711 45.455817 
L 288.036142 45.455817 
L 288.340658 45.200304 
L 288.94969 45.200304 
L 289.254206 45.455817 
L 292.299365 45.455817 
L 292.603881 45.200304 
L 293.517428 45.200304 
L 294.12646 44.689278 
L 294.735492 44.689278 
L 295.040008 44.433764 
L 295.649039 44.433764 
L 295.953555 44.178251 
L 297.171619 44.178251 
L 297.476135 43.667224 
L 299.30323 43.667224 
L 299.607746 43.411711 
L 300.216778 43.411711 
L 300.521294 43.667224 
L 300.82581 43.411711 
L 301.434841 43.411711 
L 301.739357 43.156198 
L 304.175485 43.156198 
L 304.48 42.900684 
L 305.393548 42.900684 
L 305.698064 42.389658 
L 306.00258 42.134144 
L 306.307096 42.389658 
L 306.611612 42.134144 
L 307.525159 42.134144 
L 307.829675 41.878631 
L 309.352255 41.878631 
L 309.656771 41.623118 
L 310.265802 41.623118 
L 310.570318 41.367605 
L 316.051604 41.367605 
L 316.35612 41.112091 
L 316.660636 41.112091 
L 316.965152 40.856578 
L 317.574184 40.856578 
L 317.8787 40.601065 
L 320.314827 40.601065 
L 320.619343 40.345551 
L 322.750954 40.345551 
L 323.05547 40.601065 
L 324.882565 40.601065 
L 325.491597 41.112091 
L 328.23224 41.112091 
L 328.536756 40.856578 
L 329.450304 40.856578 
L 329.75482 40.601065 
L 330.363851 40.601065 
L 330.668367 40.856578 
L 331.886431 40.856578 
L 332.190947 41.112091 
L 339.194812 41.112091 
L 339.499328 40.856578 
L 339.803844 40.856578 
L 340.10836 40.601065 
L 341.326424 40.601065 
L 341.63094 41.112091 
L 341.935455 41.367605 
L 342.544487 40.856578 
L 342.849003 40.856578 
L 343.153519 40.601065 
L 344.980614 40.601065 
L 345.589646 40.090038 
L 345.894162 40.090038 
L 346.198678 39.834525 
L 346.80771 39.834525 
L 347.112226 39.579011 
L 347.416742 39.579011 
L 347.721257 39.323498 
L 348.330289 39.323498 
L 348.634805 39.579011 
L 351.98448 39.579011 
L 352.898028 38.812471 
L 353.507059 38.812471 
L 353.811575 39.067985 
L 354.420607 39.067985 
L 354.725123 38.812471 
L 357.770282 38.812471 
L 358.074798 38.556958 
L 358.988346 38.556958 
L 359.292861 38.301445 
L 362.33802 38.301445 
L 362.642536 38.045932 
L 363.8606 38.045932 
L 364.165116 37.790418 
L 366.296727 37.790418 
L 366.601243 37.534905 
L 367.819306 37.534905 
L 368.123822 37.279392 
L 368.428338 37.279392 
L 369.341886 36.512852 
L 369.646402 36.001825 
L 376.345751 36.001825 
L 376.650267 35.746312 
L 377.259299 35.746312 
L 377.563815 35.235285 
L 378.172847 35.235285 
L 378.477363 34.979772 
L 378.781879 34.979772 
L 379.086395 34.724259 
L 380.304458 34.724259 
L 380.608974 34.468745 
L 382.131553 34.468745 
L 382.740585 33.957719 
L 383.654133 33.957719 
L 383.958649 33.702205 
L 387.308324 33.702205 
L 387.61284 33.957719 
L 388.221871 33.446692 
L 389.135419 33.446692 
L 389.439935 33.191179 
L 399.488959 33.191179 
L 399.793475 32.935665 
L 400.402507 32.935665 
L 400.707023 32.680152 
L 404.970246 32.680152 
L 405.274761 32.424639 
L 410.147016 32.424639 
L 410.451532 32.680152 
L 413.192175 32.680152 
L 413.801206 32.169125 
L 415.323786 32.169125 
L 415.628302 31.913612 
L 416.54185 31.913612 
L 416.846365 31.658099 
L 419.891524 31.658099 
L 420.19604 31.402586 
L 426.89539 31.402586 
L 427.199906 31.147072 
L 429.027001 31.147072 
L 429.636033 30.636046 
L 433.899256 30.636046 
L 434.203771 30.891559 
L 434.508287 30.636046 
L 439.380542 30.636046 
L 439.685058 30.380532 
L 440.598605 30.380532 
L 440.903121 30.125019 
L 446.384407 30.125019 
L 446.688923 29.869506 
L 453.388273 29.869506 
L 453.997305 29.358479 
L 455.519884 29.358479 
L 455.8244 29.102966 
L 457.956011 29.102966 
L 458.260527 28.591939 
L 463.132781 28.591939 
L 463.437297 28.336426 
L 468.005036 28.336426 
L 468.309552 28.591939 
L 470.136647 28.591939 
L 470.441163 28.336426 
L 482.926314 28.336426 
L 483.23083 28.080913 
L 485.971473 28.080913 
L 486.275989 27.825399 
L 488.712116 27.825399 
L 489.016632 27.569886 
L 492.061791 27.569886 
L 492.366307 27.314373 
L 496.020498 27.314373 
L 496.325014 27.058859 
L 498.152109 27.058859 
L 498.456625 26.803346 
L 501.197268 26.803346 
L 501.501784 26.547833 
L 503.024364 26.547833 
L 503.328879 26.803346 
L 507.287586 26.803346 
L 507.592102 26.547833 
L 517.945642 26.547833 
L 518.250158 26.292319 
L 523.731444 26.292319 
L 524.03596 26.036806 
L 525.254024 26.036806 
L 525.55854 25.781293 
L 529.21273 25.781293 
L 529.517246 25.525779 
L 531.953373 25.525779 
L 532.257889 25.270266 
L 533.171437 25.270266 
L 533.475953 25.014753 
L 536.216596 25.014753 
L 536.521112 24.75924 
L 540.479819 24.75924 
L 540.784334 24.503726 
L 548.701748 24.503726 
L 549.006264 24.248213 
L 562.100447 24.248213 
L 562.404963 23.9927 
L 565.754638 23.9927 
L 566.059154 24.248213 
L 567.581733 24.248213 
L 567.886249 23.9927 
L 570.322376 23.9927 
L 570.626892 23.737186 
L 575.803662 23.737186 
L 576.108178 23.22616 
L 578.848821 23.22616 
L 579.153337 22.970646 
L 581.89398 22.970646 
L 582.198496 22.715133 
L 582.807528 22.715133 
L 583.112044 22.45962 
L 592.552036 22.45962 
L 592.856552 22.204106 
L 596.510743 22.204106 
L 596.815259 21.948593 
L 598.94687 21.948593 
L 599.251386 21.69308 
L 600.164934 21.69308 
L 600.46945 21.437567 
L 605.950736 21.437567 
L 606.255252 21.69308 
L 609.909442 21.69308 
L 610.213958 21.437567 
L 611.127506 21.437567 
L 611.432022 21.182053 
L 614.781697 21.182053 
L 615.086213 20.92654 
L 620.872015 20.92654 
L 621.176531 21.182053 
L 621.481046 21.182053 
L 621.785562 20.92654 
L 632.139103 20.92654 
L 632.443619 21.182053 
L 643.710707 21.182053 
L 644.015223 20.92654 
L 644.319738 20.92654 
L 644.624254 21.182053 
L 647.060382 21.182053 
L 647.364897 20.92654 
L 648.887477 20.92654 
L 649.191993 20.671027 
L 654.977795 20.671027 
L 655.282311 20.92654 
L 672.335201 20.92654 
L 672.639717 20.671027 
L 674.466812 20.671027 
L 674.771328 20.415513 
L 677.511971 20.415513 
L 677.816487 20.16 
L 678.121003 20.16 
L 678.425519 20.415513 
L 680.252614 20.415513 
L 680.55713 20.16 
L 687.865511 20.16 
L 687.865511 20.16 
" style="fill:none;stroke:#1f77b4;stroke-linecap:square;stroke-width:1.5;"/>
   </g>
   <g id="line2d_15">
    <path clip-path="url(#pf6074abf80)" d="M 79.138239 417.48977 
L 79.442755 417.48977 
L 79.74727 415.709631 
L 80.356302 415.709631 
L 80.660818 413.929492 
L 80.965334 410.369215 
L 81.26985 410.369215 
L 81.574366 408.589076 
L 82.183398 408.589076 
L 82.487913 405.028799 
L 83.096945 401.468522 
L 83.401461 397.908244 
L 83.705977 397.908244 
L 84.315009 390.78769 
L 84.619525 385.447274 
L 84.924041 385.447274 
L 85.228557 383.667135 
L 85.533072 380.106858 
L 85.837588 378.326719 
L 86.142104 371.206164 
L 86.44662 371.206164 
L 86.751136 369.426025 
L 87.360168 356.965055 
L 87.664684 356.965055 
L 87.9692 351.624639 
L 88.273715 349.8445 
L 88.578231 349.8445 
L 88.882747 346.284223 
L 89.796295 340.943807 
L 90.100811 332.043113 
L 90.405327 328.482836 
L 90.709843 326.702697 
L 91.014359 317.802004 
L 91.318874 317.802004 
L 91.62339 316.021865 
L 91.927906 312.461588 
L 92.232422 310.681449 
L 92.536938 312.461588 
L 92.841454 312.461588 
L 93.14597 307.121172 
L 93.450486 305.341033 
L 93.755002 305.341033 
L 94.059517 303.560895 
L 94.364033 300.000617 
L 94.973065 300.000617 
L 95.277581 292.880063 
L 95.582097 292.880063 
L 95.886613 291.099924 
L 96.495645 291.099924 
L 96.800161 289.319785 
L 97.104676 285.759508 
L 97.409192 285.759508 
L 97.713708 280.419092 
L 98.32274 276.858815 
L 98.627256 276.858815 
L 99.236288 273.298537 
L 99.540804 269.73826 
L 99.845319 267.958121 
L 100.149835 267.958121 
L 100.454351 266.177983 
L 101.367899 266.177983 
L 101.672415 264.397844 
L 101.976931 260.837567 
L 102.890478 260.837567 
L 103.194994 259.057428 
L 103.804026 259.057428 
L 105.02209 251.936873 
L 105.326606 251.936873 
L 105.631121 250.156735 
L 106.240153 250.156735 
L 106.849185 246.596457 
L 108.067249 246.596457 
L 108.371764 244.816318 
L 109.285312 244.816318 
L 109.894344 241.256041 
L 110.19886 241.256041 
L 111.112408 235.915625 
L 111.416923 235.915625 
L 111.721439 234.135486 
L 114.157566 234.135486 
L 114.766598 230.575209 
L 115.984662 230.575209 
L 116.593694 227.014932 
L 118.420789 227.014932 
L 118.725305 225.234793 
L 119.638853 225.234793 
L 119.943368 223.454654 
L 120.247884 219.894377 
L 120.856916 216.3341 
L 121.161432 216.3341 
L 121.465948 214.553961 
L 124.815623 214.553961 
L 125.120139 216.3341 
L 126.033686 216.3341 
L 126.338202 214.553961 
L 126.642718 216.3341 
L 126.947234 216.3341 
L 127.556266 212.773822 
L 127.860782 212.773822 
L 128.165298 210.993684 
L 128.469814 210.993684 
L 128.774329 209.213545 
L 129.078845 209.213545 
L 129.383361 207.433406 
L 130.296909 207.433406 
L 130.601425 205.653268 
L 130.905941 205.653268 
L 131.514972 202.09299 
L 132.124004 202.09299 
L 132.733036 198.532713 
L 134.255616 198.532713 
L 134.560131 196.752574 
L 135.169163 196.752574 
L 135.473679 194.972436 
L 135.778195 194.972436 
L 136.691743 189.63202 
L 136.996259 189.63202 
L 137.300774 187.851881 
L 137.909806 187.851881 
L 138.214322 186.071742 
L 139.12787 186.071742 
L 139.432386 184.291604 
L 139.736902 184.291604 
L 140.041417 182.511465 
L 140.345933 182.511465 
L 140.650449 180.731326 
L 141.563997 180.731326 
L 141.868513 177.171049 
L 142.173029 175.39091 
L 142.782061 175.39091 
L 143.086576 173.610772 
L 144.609156 173.610772 
L 145.218188 170.050494 
L 145.522704 170.050494 
L 145.827219 168.270356 
L 146.131735 164.710078 
L 146.436251 164.710078 
L 146.740767 162.92994 
L 147.045283 162.92994 
L 147.654315 159.369662 
L 149.48141 159.369662 
L 149.785926 157.589524 
L 150.090442 157.589524 
L 150.394958 155.809385 
L 153.135601 155.809385 
L 153.440117 154.029246 
L 154.962696 154.029246 
L 155.267212 152.249108 
L 159.225919 152.249108 
L 159.530435 150.468969 
L 159.834951 150.468969 
L 160.139467 148.68883 
L 161.053014 148.68883 
L 161.35753 146.908692 
L 162.575594 146.908692 
L 163.184625 143.348414 
L 164.402689 143.348414 
L 164.707205 141.568276 
L 165.316237 141.568276 
L 165.620753 139.788137 
L 168.05688 139.788137 
L 168.361396 136.22786 
L 168.665912 134.447721 
L 170.188491 134.447721 
L 170.493007 132.667582 
L 172.015586 132.667582 
L 172.320102 130.887444 
L 173.23365 130.887444 
L 173.538166 129.107305 
L 174.147198 129.107305 
L 174.451714 127.327166 
L 178.714936 127.327166 
L 179.323968 123.766889 
L 181.455579 123.766889 
L 181.760095 121.98675 
L 182.369127 121.98675 
L 182.673643 120.206611 
L 185.718802 120.206611 
L 186.023318 118.426473 
L 186.327833 118.426473 
L 186.936865 114.866195 
L 187.850413 114.866195 
L 188.154929 113.086057 
L 189.982024 113.086057 
L 190.28654 111.305918 
L 191.200088 111.305918 
L 191.504604 109.525779 
L 194.549763 109.525779 
L 194.854278 107.745641 
L 197.290406 107.745641 
L 197.594922 105.965502 
L 200.64008 105.965502 
L 201.249112 102.405225 
L 201.858144 102.405225 
L 202.16266 100.625086 
L 205.512335 100.625086 
L 205.816851 98.844947 
L 206.121367 98.844947 
L 206.425882 97.064809 
L 207.33943 97.064809 
L 207.643946 95.28467 
L 213.125232 95.28467 
L 213.429748 93.504531 
L 217.083939 93.504531 
L 217.388455 91.724393 
L 220.129098 91.724393 
L 220.433614 88.164115 
L 222.260709 88.164115 
L 222.565225 86.383977 
L 226.828447 86.383977 
L 227.132963 82.823699 
L 228.960059 82.823699 
L 229.264575 81.043561 
L 229.56909 81.043561 
L 229.873606 79.263422 
L 230.787154 79.263422 
L 231.396186 75.703145 
L 239.009083 75.703145 
L 239.618115 72.142867 
L 244.490369 72.142867 
L 245.099401 68.58259 
L 246.317465 68.58259 
L 246.621981 66.802451 
L 250.885203 66.802451 
L 251.189719 65.022313 
L 263.370355 65.022313 
L 263.674871 63.242174 
L 265.19745 63.242174 
L 265.501966 61.462035 
L 270.37422 61.462035 
L 270.678736 59.681897 
L 273.114863 59.681897 
L 273.419379 57.901758 
L 275.855506 57.901758 
L 276.160022 56.121619 
L 298.998714 56.121619 
L 299.30323 57.901758 
L 299.607746 56.121619 
L 306.916128 56.121619 
L 307.220643 54.341481 
L 309.047739 54.341481 
L 309.352255 52.561342 
L 309.656771 52.561342 
L 309.961287 49.001065 
L 329.145788 49.001065 
L 329.450304 50.781203 
L 337.367717 50.781203 
L 337.672233 49.001065 
L 348.634805 49.001065 
L 348.939321 50.781203 
L 354.116091 50.781203 
L 354.420607 49.001065 
L 371.168981 49.001065 
L 371.473497 50.781203 
L 372.691561 50.781203 
L 372.996077 49.001065 
L 373.605108 49.001065 
L 373.909624 47.220926 
L 394.312189 47.220926 
L 394.616705 45.440787 
L 396.139285 45.440787 
L 396.443801 43.660649 
L 407.710889 43.660649 
L 408.015404 41.88051 
L 411.974111 41.88051 
L 412.278627 40.100371 
L 430.245065 40.100371 
L 430.549581 38.320233 
L 461.00117 38.320233 
L 461.305686 40.100371 
L 491.757275 40.100371 
L 492.061791 38.320233 
L 504.242427 38.320233 
L 504.546943 40.100371 
L 505.460491 40.100371 
L 505.765007 38.320233 
L 555.705613 38.320233 
L 556.010129 36.540094 
L 571.844956 36.540094 
L 572.149472 38.320233 
L 650.10554 38.320233 
L 650.410056 40.100371 
L 687.865511 40.100371 
L 687.865511 40.100371 
" style="fill:none;stroke:#ff7f0e;stroke-linecap:square;stroke-width:1.5;"/>
   </g>
   <g id="patch_3">
    <path d="M 48.701875 443.52 
L 48.701875 -0 
" style="fill:none;stroke:#000000;stroke-linecap:square;stroke-linejoin:miter;stroke-width:0.8;"/>
   </g>
   <g id="patch_4">
    <path d="M 718.301875 443.52 
L 718.301875 -0 
" style="fill:none;stroke:#000000;stroke-linecap:square;stroke-linejoin:miter;stroke-width:0.8;"/>
   </g>
   <g id="patch_5">
    <path d="M 48.701875 443.52 
L 718.301875 443.52 
" style="fill:none;stroke:#000000;stroke-linecap:square;stroke-linejoin:miter;stroke-width:0.8;"/>
   </g>
   <g id="patch_6">
    <path d="M 48.701875 -0 
L 718.301875 -0 
" style="fill:none;stroke:#000000;stroke-linecap:square;stroke-linejoin:miter;stroke-width:0.8;"/>
   </g>
   <g id="legend_1">
    <g id="patch_7">
     <path d="M 582.145938 65.368125 
L 705.701875 65.368125 
Q 709.301875 65.368125 709.301875 61.768125 
L 709.301875 12.6 
Q 709.301875 9 705.701875 9 
L 582.145938 9 
Q 578.545938 9 578.545938 12.6 
L 578.545938 61.768125 
Q 578.545938 65.368125 582.145938 65.368125 
z
" style="fill:#ffffff;opacity:0.8;stroke:#cccccc;stroke-linejoin:miter;"/>
    </g>
    <g id="line2d_16">
     <path d="M 585.745938 22.5 
L 621.745938 22.5 
" style="fill:none;stroke:#1f77b4;stroke-linecap:square;stroke-width:1.5;"/>
    </g>
    <g id="line2d_17"/>
    <g id="text_16">
     <!-- train_acc -->
     <g transform="translate(636.145938 28.8)scale(0.18 -0.18)">
      <defs>
       <path d="M 16.109375 59.421875 
L 16.109375 44.734375 
L 26.5625 44.734375 
L 26.5625 41.3125 
L 16.109375 41.3125 
L 16.109375 12.3125 
Q 16.109375 7.953125 17.359375 6.4375 
Q 18.609375 4.9375 20.5625 4.9375 
Q 22.171875 4.9375 23.6875 5.9375 
Q 25.203125 6.9375 26.03125 8.890625 
L 27.9375 8.890625 
Q 26.21875 4.109375 23.09375 1.6875 
Q 19.96875 -0.734375 16.65625 -0.734375 
Q 14.40625 -0.734375 12.25 0.515625 
Q 10.109375 1.765625 9.078125 4.078125 
Q 8.0625 6.390625 8.0625 11.234375 
L 8.0625 41.3125 
L 0.984375 41.3125 
L 0.984375 42.921875 
Q 3.65625 44 6.46875 46.5625 
Q 9.28125 49.125 11.46875 52.640625 
Q 12.59375 54.5 14.59375 59.421875 
z
" id="TimesNewRomanPSMT-116"/>
       <path d="M 16.21875 46.046875 
L 16.21875 35.984375 
Q 21.828125 46.046875 27.734375 46.046875 
Q 30.421875 46.046875 32.171875 44.40625 
Q 33.9375 42.78125 33.9375 40.625 
Q 33.9375 38.71875 32.65625 37.390625 
Q 31.390625 36.078125 29.640625 36.078125 
Q 27.9375 36.078125 25.8125 37.765625 
Q 23.6875 39.453125 22.65625 39.453125 
Q 21.78125 39.453125 20.75 38.484375 
Q 18.5625 36.46875 16.21875 31.890625 
L 16.21875 10.453125 
Q 16.21875 6.734375 17.140625 4.828125 
Q 17.78125 3.515625 19.390625 2.640625 
Q 21 1.765625 24.03125 1.765625 
L 24.03125 0 
L 1.125 0 
L 1.125 1.765625 
Q 4.546875 1.765625 6.203125 2.828125 
Q 7.421875 3.609375 7.90625 5.328125 
Q 8.15625 6.15625 8.15625 10.0625 
L 8.15625 27.390625 
Q 8.15625 35.203125 7.828125 36.6875 
Q 7.515625 38.1875 6.65625 38.859375 
Q 5.8125 39.546875 4.546875 39.546875 
Q 3.03125 39.546875 1.125 38.8125 
L 0.640625 40.578125 
L 14.15625 46.046875 
z
" id="TimesNewRomanPSMT-114"/>
       <path d="M 28.46875 6.453125 
Q 21.578125 1.125 19.828125 0.296875 
Q 17.1875 -0.921875 14.203125 -0.921875 
Q 9.578125 -0.921875 6.5625 2.25 
Q 3.5625 5.421875 3.5625 10.59375 
Q 3.5625 13.875 5.03125 16.265625 
Q 7.03125 19.578125 11.984375 22.5 
Q 16.9375 25.4375 28.46875 29.640625 
L 28.46875 31.390625 
Q 28.46875 38.09375 26.34375 40.578125 
Q 24.21875 43.0625 20.171875 43.0625 
Q 17.09375 43.0625 15.28125 41.40625 
Q 13.421875 39.75 13.421875 37.59375 
L 13.53125 34.765625 
Q 13.53125 32.515625 12.375 31.296875 
Q 11.234375 30.078125 9.375 30.078125 
Q 7.5625 30.078125 6.421875 31.34375 
Q 5.28125 32.625 5.28125 34.8125 
Q 5.28125 39.015625 9.578125 42.53125 
Q 13.875 46.046875 21.625 46.046875 
Q 27.59375 46.046875 31.390625 44.046875 
Q 34.28125 42.53125 35.640625 39.3125 
Q 36.53125 37.203125 36.53125 30.71875 
L 36.53125 15.53125 
Q 36.53125 9.125 36.765625 7.6875 
Q 37.015625 6.25 37.578125 5.765625 
Q 38.140625 5.28125 38.875 5.28125 
Q 39.65625 5.28125 40.234375 5.609375 
Q 41.265625 6.25 44.1875 9.1875 
L 44.1875 6.453125 
Q 38.71875 -0.875 33.734375 -0.875 
Q 31.34375 -0.875 29.921875 0.78125 
Q 28.515625 2.4375 28.46875 6.453125 
z
M 28.46875 9.625 
L 28.46875 26.65625 
Q 21.09375 23.734375 18.953125 22.515625 
Q 15.09375 20.359375 13.421875 18.015625 
Q 11.765625 15.671875 11.765625 12.890625 
Q 11.765625 9.375 13.859375 7.046875 
Q 15.96875 4.734375 18.703125 4.734375 
Q 22.40625 4.734375 28.46875 9.625 
z
" id="TimesNewRomanPSMT-97"/>
       <path d="M 14.5 69.4375 
Q 16.546875 69.4375 17.984375 67.984375 
Q 19.4375 66.546875 19.4375 64.5 
Q 19.4375 62.453125 17.984375 60.984375 
Q 16.546875 59.515625 14.5 59.515625 
Q 12.453125 59.515625 10.984375 60.984375 
Q 9.515625 62.453125 9.515625 64.5 
Q 9.515625 66.546875 10.953125 67.984375 
Q 12.40625 69.4375 14.5 69.4375 
z
M 18.5625 46.046875 
L 18.5625 10.109375 
Q 18.5625 5.90625 19.171875 4.515625 
Q 19.78125 3.125 20.96875 2.4375 
Q 22.171875 1.765625 25.34375 1.765625 
L 25.34375 0 
L 3.609375 0 
L 3.609375 1.765625 
Q 6.890625 1.765625 8 2.390625 
Q 9.125 3.03125 9.78125 4.484375 
Q 10.453125 5.953125 10.453125 10.109375 
L 10.453125 27.34375 
Q 10.453125 34.625 10.015625 36.765625 
Q 9.671875 38.328125 8.9375 38.9375 
Q 8.203125 39.546875 6.9375 39.546875 
Q 5.5625 39.546875 3.609375 38.8125 
L 2.9375 40.578125 
L 16.40625 46.046875 
z
" id="TimesNewRomanPSMT-105"/>
       <path d="M 16.15625 36.578125 
Q 24.03125 46.046875 31.15625 46.046875 
Q 34.8125 46.046875 37.453125 44.21875 
Q 40.09375 42.390625 41.65625 38.1875 
Q 42.71875 35.25 42.71875 29.203125 
L 42.71875 10.109375 
Q 42.71875 5.859375 43.40625 4.34375 
Q 43.953125 3.125 45.140625 2.4375 
Q 46.34375 1.765625 49.5625 1.765625 
L 49.5625 0 
L 27.4375 0 
L 27.4375 1.765625 
L 28.375 1.765625 
Q 31.5 1.765625 32.734375 2.703125 
Q 33.984375 3.65625 34.46875 5.515625 
Q 34.671875 6.25 34.671875 10.109375 
L 34.671875 28.421875 
Q 34.671875 34.515625 33.078125 37.28125 
Q 31.5 40.046875 27.734375 40.046875 
Q 21.921875 40.046875 16.15625 33.6875 
L 16.15625 10.109375 
Q 16.15625 5.5625 16.703125 4.5 
Q 17.390625 3.078125 18.578125 2.421875 
Q 19.78125 1.765625 23.4375 1.765625 
L 23.4375 0 
L 1.3125 0 
L 1.3125 1.765625 
L 2.296875 1.765625 
Q 5.71875 1.765625 6.90625 3.484375 
Q 8.109375 5.21875 8.109375 10.109375 
L 8.109375 26.703125 
Q 8.109375 34.765625 7.734375 36.515625 
Q 7.375 38.28125 6.609375 38.90625 
Q 5.859375 39.546875 4.59375 39.546875 
Q 3.21875 39.546875 1.3125 38.8125 
L 0.59375 40.578125 
L 14.0625 46.046875 
L 16.15625 46.046875 
z
" id="TimesNewRomanPSMT-110"/>
       <path d="M 50.875 -21.578125 
L -0.828125 -21.578125 
L -0.828125 -17.484375 
L 50.875 -17.484375 
z
" id="TimesNewRomanPSMT-95"/>
      </defs>
      <use xlink:href="#TimesNewRomanPSMT-116"/>
      <use x="27.783203" xlink:href="#TimesNewRomanPSMT-114"/>
      <use x="61.083984" xlink:href="#TimesNewRomanPSMT-97"/>
      <use x="105.46875" xlink:href="#TimesNewRomanPSMT-105"/>
      <use x="133.251953" xlink:href="#TimesNewRomanPSMT-110"/>
      <use x="183.251953" xlink:href="#TimesNewRomanPSMT-95"/>
      <use x="233.251953" xlink:href="#TimesNewRomanPSMT-97"/>
      <use x="277.636719" xlink:href="#TimesNewRomanPSMT-99"/>
      <use x="322.021484" xlink:href="#TimesNewRomanPSMT-99"/>
     </g>
    </g>
    <g id="line2d_18">
     <path d="M 585.745938 47.984062 
L 621.745938 47.984062 
" style="fill:none;stroke:#ff7f0e;stroke-linecap:square;stroke-width:1.5;"/>
    </g>
    <g id="line2d_19"/>
    <g id="text_17">
     <!-- val_acc -->
     <g transform="translate(636.145938 54.284062)scale(0.18 -0.18)">
      <defs>
       <path d="M 0.828125 44.734375 
L 21.875 44.734375 
L 21.875 42.921875 
L 20.515625 42.921875 
Q 18.609375 42.921875 17.609375 41.984375 
Q 16.609375 41.0625 16.609375 39.5 
Q 16.609375 37.796875 17.625 35.453125 
L 28.03125 10.75 
L 38.484375 36.375 
Q 39.59375 39.109375 39.59375 40.53125 
Q 39.59375 41.21875 39.203125 41.65625 
Q 38.671875 42.390625 37.84375 42.65625 
Q 37.015625 42.921875 34.46875 42.921875 
L 34.46875 44.734375 
L 49.078125 44.734375 
L 49.078125 42.921875 
Q 46.53125 42.71875 45.5625 41.890625 
Q 43.84375 40.4375 42.484375 37.015625 
L 26.609375 -1.375 
L 24.609375 -1.375 
L 8.640625 36.375 
Q 7.5625 39.015625 6.578125 40.15625 
Q 5.609375 41.3125 4.109375 42.09375 
Q 3.265625 42.53125 0.828125 42.921875 
z
" id="TimesNewRomanPSMT-118"/>
       <path d="M 18.5 69.4375 
L 18.5 10.109375 
Q 18.5 5.90625 19.109375 4.53125 
Q 19.734375 3.171875 21 2.46875 
Q 22.265625 1.765625 25.734375 1.765625 
L 25.734375 0 
L 3.8125 0 
L 3.8125 1.765625 
Q 6.890625 1.765625 8 2.390625 
Q 9.125 3.03125 9.765625 4.484375 
Q 10.40625 5.953125 10.40625 10.109375 
L 10.40625 50.734375 
Q 10.40625 58.296875 10.0625 60.03125 
Q 9.71875 61.765625 8.953125 62.390625 
Q 8.203125 63.03125 7.03125 63.03125 
Q 5.765625 63.03125 3.8125 62.25 
L 2.984375 63.96875 
L 16.3125 69.4375 
z
" id="TimesNewRomanPSMT-108"/>
      </defs>
      <use xlink:href="#TimesNewRomanPSMT-118"/>
      <use x="50" xlink:href="#TimesNewRomanPSMT-97"/>
      <use x="94.384766" xlink:href="#TimesNewRomanPSMT-108"/>
      <use x="122.167969" xlink:href="#TimesNewRomanPSMT-95"/>
      <use x="172.167969" xlink:href="#TimesNewRomanPSMT-97"/>
      <use x="216.552734" xlink:href="#TimesNewRomanPSMT-99"/>
      <use x="260.9375" xlink:href="#TimesNewRomanPSMT-99"/>
     </g>
    </g>
   </g>
  </g>
 </g>
 <defs>
  <clipPath id="pf6074abf80">
   <rect height="443.52" width="669.6" x="48.701875" y="-0"/>
  </clipPath>
 </defs>
</svg>
